<?xml version="1.0" encoding="UTF-8"?>
<svg id="Layer_2" data-name="Layer 2" xmlns="http://www.w3.org/2000/svg" viewBox="0 0 428.35 100.57">
  <defs>
    <style>
      .cls-1 {
        fill: #231f20;
      }

      .cls-2 {
        fill: #a41a2d;
      }

      .cls-3 {
        fill: #c8c7c6;
        stroke: #c8c7c6;
        stroke-miterlimit: 10;
      }

      .cls-4 {
        fill: #5a3041;
      }
    </style>
  </defs>
  <g id="Layer_1-2" data-name="Layer 1">
    <g>
      <g>
        <g>
          <path class="cls-2" d="M50.71,26.79c3.76.04,7.16.98,10.19,2.8,3.03,1.82,5.43,4.28,7.22,7.36,1.79,3.08,2.7,6.55,2.74,10.38-.04,3.87-.96,7.35-2.74,10.45-1.79,3.1-4.19,5.57-7.22,7.39-3.03,1.82-6.42,2.76-10.19,2.81-3.8-.04-7.22-.98-10.26-2.81-3.04-1.82-5.45-4.29-7.24-7.39-1.79-3.1-2.7-6.58-2.74-10.45.04-3.83.97-7.29,2.77-10.38,1.8-3.09,4.22-5.54,7.26-7.36,3.04-1.82,6.45-2.76,10.22-2.8h0ZM50.71,29.08c-4.36,0-7.21,1.49-8.58,4.49-.29.58-.51,1.28-.66,2.11-.14.83-.24,2.13-.28,3.9-.05,1.77-.07,4.36-.06,7.76,0,3.85.02,6.73.08,8.65.07,1.91.22,3.29.46,4.14.24.85.62,1.61,1.15,2.27,1.58,2.24,4.21,3.34,7.88,3.29,4.22,0,7.04-1.5,8.47-4.49.3-.58.52-1.28.66-2.11.14-.83.24-2.14.28-3.93.04-1.79.06-4.4.06-7.83,0-3.82-.02-6.67-.08-8.57-.07-1.9-.22-3.28-.46-4.13-.24-.85-.63-1.6-1.15-2.26-1.59-2.24-4.19-3.34-7.78-3.29h0Z"/>
          <path class="cls-2" d="M78.83,63.77l-1.8,2.49c-.3.53-.6.76-.9.7-.48.05-.72-.35-.7-1.2l-.3-12.37c-.03-.96.23-1.43.8-1.39.45-.04.75.33.9,1.1.92,3.97,2.47,7.05,4.64,9.23,2.17,2.19,4.81,3.3,7.93,3.33,2.65-.05,4.81-.78,6.48-2.18,1.67-1.41,2.54-3.2,2.59-5.4.05-1.81-.63-3.22-2.03-4.21-1.41-.99-3.86-1.75-7.34-2.27-4.97-.78-8.49-2.13-10.56-4.05-2.07-1.92-3.07-4.79-3-8.62.07-3.56,1.18-6.46,3.34-8.7,2.16-2.24,4.97-3.4,8.43-3.46,1.76-.02,3.4.26,4.91.83,1.51.57,3.1,1.52,4.76,2.85l1-2.09c.35-.82.75-1.18,1.2-1.1.6-.05.9.45.9,1.5l.3,8.88c.03.96-.23,1.43-.8,1.4-.53.02-.87-.42-1-1.3-.4-2.33-1.67-4.33-3.8-6.02-2.14-1.69-4.52-2.57-7.17-2.65-2.5.04-4.56.7-6.17,1.99-1.61,1.29-2.45,2.95-2.51,4.99-.07,1.46.6,2.6,2.01,3.43,1.41.82,4,1.54,7.77,2.16,4.79.85,8.25,2.26,10.36,4.24,2.11,1.97,3.15,4.78,3.11,8.43-.07,4.06-1.28,7.33-3.62,9.82-2.34,2.49-5.39,3.77-9.15,3.84-1.9.02-3.66-.29-5.28-.93-1.63-.64-3.39-1.73-5.29-3.25h0Z"/>
          <path class="cls-2" d="M158.98,29.73l-10.97,35.3c-.33,1.17-.67,1.95-1.01,2.34-.34.4-.8.58-1.38.55-.66.03-1.16-.13-1.48-.5-.33-.36-.7-1.13-1.11-2.29l-9.58-24.73-7.58,24.63c-.33,1.12-.67,1.89-1.01,2.31-.34.41-.8.61-1.38.59-.67.03-1.18-.13-1.53-.5-.35-.36-.74-1.13-1.16-2.29l-13.56-35.4h-2.9c-1.21.02-1.78-.31-1.69-.99-.08-.68.48-1.01,1.69-1h17.65c1.13-.02,1.66.32,1.59,1,.07.68-.46,1.01-1.59.99h-4.98l9.37,25.83,7.48-24.53c.42-1.31.83-2.2,1.21-2.65.39-.46.91-.67,1.58-.63.72-.04,1.28.16,1.69.59.4.42.84,1.29,1.31,2.6l9.07,24.63,7.68-25.83h-6.08c-1.13.02-1.66-.31-1.6-.99-.06-.68.47-1.01,1.6-1h11.67c1.21-.02,1.78.32,1.7,1,.08.68-.48,1.01-1.7.99h-2.99Z"/>
          <path class="cls-2" d="M192.84,53.52v2.39c0,2.21,0,3.77,0,4.68,0,.92.02,1.52.05,1.8.03.28.08.58.14.89.2,1.2.8,1.8,1.79,1.8.45.02.78-.02,1-.12.22-.11.65-.4,1.3-.88.2-.11.4-.18.6-.2.58.04.91.37,1,1,0,.35-.3.75-.9,1.2-1.75,1.28-3.64,1.91-5.68,1.9-4.85-.05-7.61-2.64-8.28-7.78-1.47,2.5-3.32,4.43-5.55,5.76-2.23,1.34-4.7,2.01-7.41,2.02-3.23-.04-5.79-.91-7.68-2.61-1.89-1.7-2.85-3.99-2.89-6.87.04-4.11,2.06-7.29,6.08-9.54,4.02-2.25,9.84-3.46,17.45-3.63v-6.88c.02-2.79-.07-4.69-.25-5.72-.18-1.03-.57-1.81-1.15-2.36-1.2-1.23-2.99-1.86-5.38-1.9-1.84.06-3.52.52-5.05,1.38-1.53.87-2.34,1.8-2.43,2.81-.03.31.13.68.5,1.09.96,1.08,1.43,2.11,1.4,3.09-.02,1.27-.41,2.3-1.16,3.08-.76.78-1.77,1.18-3.03,1.21-1.22-.03-2.22-.44-2.99-1.25-.77-.8-1.17-1.81-1.2-3.04.13-2.78,1.69-5.13,4.69-7.06,2.99-1.93,6.65-2.93,10.97-3.02,2.48.01,4.75.39,6.82,1.12,2.07.74,3.72,1.76,4.95,3.07.72.7,1.24,1.39,1.57,2.07.33.68.53,1.71.62,3.11.08,1.39.12,3.53.11,6.39v10.97h0ZM183.87,49.03v-1.99c-5.06.19-8.78,1.11-11.14,2.75-2.37,1.65-3.54,4.09-3.52,7.32.13,4.2,2.16,6.37,6.08,6.48,3.09-.07,5.49-1.63,7.18-4.69.49-.93.85-2.19,1.07-3.78.22-1.59.33-3.62.32-6.09h0Z"/>
          <path class="cls-2" d="M206.09,64.96V2.43h-4.99c-1.16.02-1.73-.32-1.7-1-.03-.68.53-1.01,1.7-1h7.58c1.86-.02,3.08.04,3.69.18.61.13,1.14.44,1.6.92.48.45.79.99.92,1.59.13.61.19,1.84.17,3.69v58.14h4.99c1.21-.02,1.78.31,1.69.99.08.68-.48,1.02-1.69,1h-18.95c-1.16.02-1.73-.32-1.7-1-.03-.68.53-1.01,1.7-.99h4.99Z"/>
          <path class="cls-2" d="M259.95,64.96h4.99c1.21-.02,1.78.31,1.7.99.08.68-.48,1.02-1.7,1h-7.58c-1.85.02-3.08-.05-3.69-.18-.61-.13-1.14-.44-1.6-.92-.48-.46-.79-.99-.92-1.6-.13-.6-.19-1.84-.17-3.69v-1.19c-1.12,2.71-2.67,4.81-4.65,6.3-1.98,1.49-4.25,2.25-6.82,2.27-3.16-.05-6.01-.99-8.56-2.83-2.55-1.84-4.57-4.32-6.08-7.44-1.5-3.12-2.28-6.61-2.31-10.47.04-3.77.79-7.19,2.28-10.27,1.48-3.07,3.46-5.53,5.95-7.36,2.49-1.83,5.26-2.77,8.32-2.82,2.47-.02,4.66.63,6.57,1.94,1.91,1.31,3.67,3.35,5.3,6.13V2.43h-4.99c-1.16.02-1.73-.32-1.7-1-.03-.68.53-1.01,1.7-1h7.58c1.85-.02,3.08.04,3.69.18.61.13,1.14.44,1.6.92.48.45.79.99.92,1.59.13.61.19,1.84.18,3.69v58.14h0ZM240.1,29.06c-1.07.01-2.08.31-3.03.9-.95.59-1.74,1.38-2.35,2.39-.54.89-.93,2.55-1.16,4.96-.23,2.41-.34,6.21-.34,11.4,0,3.01.03,5.37.09,7.08.07,1.7.19,3.01.38,3.93.19.92.46,1.7.83,2.35.62,1.11,1.43,1.99,2.43,2.62,1,.64,2.09.96,3.25.97,3.1-.1,5.62-1.84,7.57-5.2,1.94-3.36,2.94-7.71,3-13.05-.06-5.48-1.07-9.88-3.01-13.21-1.95-3.33-4.5-5.04-7.66-5.13h0Z"/>
        </g>
        <path class="cls-1" d="M267.85,0c2.08,0,3.82,1.64,3.82,3.79s-1.74,3.83-3.82,3.83-3.84-1.64-3.84-3.83,1.75-3.79,3.84-3.79ZM267.85,7.06c1.76,0,3.13-1.4,3.13-3.27s-1.36-3.23-3.13-3.23-3.15,1.41-3.15,3.23,1.35,3.27,3.15,3.27ZM266.36,1.58h1.72c1.06,0,1.56.42,1.56,1.27,0,.8-.51,1.14-1.17,1.21l1.27,1.96h-.74l-1.21-1.91h-.73v1.91h-.69V1.58ZM267.06,3.55h.72c.61,0,1.17-.03,1.17-.73,0-.59-.51-.68-.98-.68h-.92v1.42Z"/>
      </g>
      <g>
        <path class="cls-1" d="M3.71,89.83h1.76l3.71,8.72h-1.99l-.79-1.94h-3.66l-.79,1.94H0l3.71-8.72ZM5.72,94.93l-1.15-2.81-1.15,2.81h2.3Z"/>
        <path class="cls-1" d="M14.72,93.31v-6.99h2.69v6.92c0,1.99,1,3.02,2.64,3.02s2.64-1,2.64-2.94v-7.01h2.69v6.91c0,3.71-2.08,5.52-5.37,5.52s-5.3-1.84-5.3-5.44Z"/>
        <path class="cls-1" d="M28.3,86.32h2.48l5.73,7.54v-7.54h2.66v12.24h-2.29l-5.93-7.78v7.78h-2.66v-12.24Z"/>
        <path class="cls-1" d="M42.41,86.32h2.69v12.24h-2.69v-12.24Z"/>
        <path class="cls-1" d="M47.5,96.77l1.59-1.91c1.1.91,2.26,1.49,3.65,1.49,1.1,0,1.77-.44,1.77-1.15v-.03c0-.68-.42-1.03-2.47-1.56-2.46-.63-4.06-1.31-4.06-3.74v-.04c0-2.22,1.78-3.69,4.28-3.69,1.78,0,3.3.56,4.55,1.56l-1.4,2.03c-1.08-.75-2.15-1.21-3.18-1.21s-1.57.47-1.57,1.07v.03c0,.8.52,1.07,2.64,1.61,2.48.65,3.88,1.54,3.88,3.67v.03c0,2.43-1.85,3.79-4.49,3.79-1.85,0-3.72-.65-5.19-1.96Z"/>
        <path class="cls-1" d="M59.16,92.47v-.04c0-3.48,2.74-6.33,6.52-6.33s6.49,2.81,6.49,6.29v.04c0,3.48-2.74,6.33-6.52,6.33s-6.49-2.81-6.49-6.29ZM69.35,92.47v-.04c0-2.1-1.54-3.85-3.71-3.85s-3.67,1.71-3.67,3.81v.04c0,2.1,1.54,3.85,3.71,3.85s3.67-1.71,3.67-3.81Z"/>
        <path class="cls-1" d="M74.73,86.32h2.48l5.73,7.54v-7.54h2.66v12.24h-2.29l-5.93-7.78v7.78h-2.66v-12.24Z"/>
        <path class="cls-1" d="M94.14,86.32h5.59c1.56,0,2.76.44,3.57,1.24.68.68,1.05,1.64,1.05,2.8v.04c0,1.98-1.07,3.22-2.62,3.79l2.99,4.37h-3.15l-2.62-3.92h-2.12v3.92h-2.69v-12.24ZM99.56,92.26c1.31,0,2.06-.7,2.06-1.73v-.04c0-1.15-.8-1.75-2.12-1.75h-2.67v3.51h2.73Z"/>
        <path class="cls-1" d="M107.07,86.32h2.69v12.24h-2.69v-12.24Z"/>
        <path class="cls-1" d="M112.16,96.77l1.59-1.91c1.1.91,2.26,1.49,3.65,1.49,1.1,0,1.77-.44,1.77-1.15v-.03c0-.68-.42-1.03-2.46-1.56-2.47-.63-4.06-1.31-4.06-3.74v-.04c0-2.22,1.78-3.69,4.28-3.69,1.78,0,3.3.56,4.55,1.56l-1.4,2.03c-1.08-.75-2.15-1.21-3.18-1.21s-1.57.47-1.57,1.07v.03c0,.8.52,1.07,2.64,1.61,2.48.65,3.88,1.54,3.88,3.67v.03c0,2.43-1.85,3.79-4.49,3.79-1.85,0-3.72-.65-5.19-1.96Z"/>
        <path class="cls-1" d="M124.36,86.32h2.69v5.35l4.93-5.35h3.3l-5,5.19,5.21,7.05h-3.23l-3.79-5.21-1.42,1.47v3.74h-2.69v-12.24Z"/>
        <path class="cls-1" d="M146.92,86.23h2.48l5.24,12.33h-2.81l-1.12-2.74h-5.18l-1.12,2.74h-2.74l5.25-12.33ZM149.75,93.43l-1.63-3.97-1.63,3.97h3.25Z"/>
        <path class="cls-1" d="M156.7,86.32h4.77c3.85,0,6.5,2.64,6.5,6.08v.04c0,3.44-2.66,6.12-6.5,6.12h-4.77v-12.24ZM159.4,88.75v7.38h2.08c2.2,0,3.69-1.49,3.69-3.65v-.04c0-2.17-1.49-3.69-3.69-3.69h-2.08Z"/>
        <path class="cls-1" d="M168.71,86.32h2.97l3.2,8.62,3.2-8.62h2.9l-4.95,12.33h-2.38l-4.95-12.33Z"/>
        <path class="cls-1" d="M183.17,86.32h2.69v12.24h-2.69v-12.24Z"/>
        <path class="cls-1" d="M188.26,96.77l1.59-1.91c1.1.91,2.26,1.49,3.65,1.49,1.1,0,1.77-.44,1.77-1.15v-.03c0-.68-.42-1.03-2.47-1.56-2.47-.63-4.06-1.31-4.06-3.74v-.04c0-2.22,1.78-3.69,4.28-3.69,1.78,0,3.3.56,4.55,1.56l-1.4,2.03c-1.08-.75-2.15-1.21-3.18-1.21s-1.57.47-1.57,1.07v.03c0,.8.52,1.07,2.64,1.61,2.48.65,3.88,1.54,3.88,3.67v.03c0,2.43-1.85,3.79-4.49,3.79-1.85,0-3.72-.65-5.19-1.96Z"/>
        <path class="cls-1" d="M199.92,92.47v-.04c0-3.48,2.74-6.33,6.52-6.33s6.49,2.81,6.49,6.29v.04c0,3.48-2.74,6.33-6.52,6.33s-6.49-2.81-6.49-6.29ZM210.11,92.47v-.04c0-2.1-1.54-3.85-3.71-3.85s-3.67,1.71-3.67,3.81v.04c0,2.1,1.54,3.85,3.71,3.85s3.67-1.71,3.67-3.81Z"/>
        <path class="cls-1" d="M215.5,86.32h5.59c1.56,0,2.76.44,3.57,1.24.68.68,1.05,1.64,1.05,2.8v.04c0,1.98-1.07,3.22-2.62,3.79l2.99,4.37h-3.15l-2.62-3.92h-2.12v3.92h-2.69v-12.24ZM220.92,92.26c1.31,0,2.06-.7,2.06-1.73v-.04c0-1.15-.8-1.75-2.12-1.75h-2.68v3.51h2.73Z"/>
        <path class="cls-1" d="M227.47,96.77l1.59-1.91c1.1.91,2.26,1.49,3.65,1.49,1.1,0,1.77-.44,1.77-1.15v-.03c0-.68-.42-1.03-2.47-1.56-2.47-.63-4.06-1.31-4.06-3.74v-.04c0-2.22,1.78-3.69,4.28-3.69,1.78,0,3.3.56,4.55,1.56l-1.4,2.03c-1.08-.75-2.15-1.21-3.18-1.21s-1.57.47-1.57,1.07v.03c0,.8.52,1.07,2.64,1.61,2.48.65,3.88,1.54,3.88,3.67v.03c0,2.43-1.85,3.79-4.49,3.79-1.85,0-3.72-.65-5.19-1.96Z"/>
        <path class="cls-1" d="M242.7,94.25v-.02c0-2.46,1.86-4.48,4.52-4.48,1.63,0,2.61.54,3.42,1.34l-1.21,1.4c-.67-.61-1.35-.98-2.21-.98-1.46,0-2.51,1.21-2.51,2.7v.02c0,1.48,1.03,2.72,2.51,2.72.99,0,1.6-.4,2.28-1.01l1.21,1.23c-.89.95-1.88,1.55-3.55,1.55-2.55,0-4.44-1.97-4.44-4.45Z"/>
        <path class="cls-1" d="M251.7,95.28v-.02c0-1.91,1.53-3.45,3.6-3.45s3.58,1.52,3.58,3.43v.03c0,1.91-1.53,3.45-3.6,3.45s-3.58-1.52-3.58-3.43ZM257.02,95.28v-.02c0-.98-.71-1.83-1.74-1.83s-1.72.83-1.72,1.81v.03c0,.98.71,1.83,1.74,1.83s1.72-.83,1.72-1.81Z"/>
        <path class="cls-1" d="M260.36,91.92h1.88v.94c.43-.56,1-1.06,1.95-1.06.87,0,1.52.38,1.87,1.05.58-.68,1.27-1.05,2.18-1.05,1.4,0,2.24.84,2.24,2.44v4.32h-1.88v-3.7c0-.89-.4-1.35-1.1-1.35s-1.14.46-1.14,1.35v3.7h-1.88v-3.7c0-.89-.4-1.35-1.1-1.35s-1.14.46-1.14,1.35v3.7h-1.88v-6.63Z"/>
        <path class="cls-1" d="M272.24,91.92h1.88v.95c.46-.62,1.09-1.08,2.07-1.08,1.55,0,3.02,1.21,3.02,3.43v.03c0,2.21-1.45,3.43-3.02,3.43-1,0-1.62-.46-2.07-.99v2.85h-1.88v-8.61ZM277.33,95.25v-.03c0-1.1-.74-1.83-1.62-1.83s-1.61.73-1.61,1.83v.03c0,1.1.73,1.83,1.61,1.83s1.62-.72,1.62-1.83Z"/>
        <path class="cls-1" d="M280.33,96.65v-.03c0-1.45,1.1-2.12,2.67-2.12.67,0,1.15.11,1.62.27v-.11c0-.78-.48-1.21-1.42-1.21-.72,0-1.23.14-1.83.36l-.47-1.44c.73-.32,1.45-.53,2.57-.53,1.03,0,1.77.27,2.24.74.5.5.72,1.23.72,2.12v3.85h-1.82v-.72c-.46.51-1.09.84-2,.84-1.25,0-2.28-.72-2.28-2.03ZM284.64,96.22v-.33c-.32-.15-.74-.25-1.2-.25-.8,0-1.3.32-1.3.92v.03c0,.51.42.8,1.03.8.88,0,1.47-.48,1.47-1.16Z"/>
        <path class="cls-1" d="M288.17,91.92h1.88v.94c.43-.56.99-1.06,1.94-1.06,1.42,0,2.25.94,2.25,2.46v4.29h-1.88v-3.7c0-.89-.42-1.35-1.14-1.35s-1.18.46-1.18,1.35v3.7h-1.88v-6.63Z"/>
        <path class="cls-1" d="M300.18,91.92h1.95l-2.55,6.79c-.51,1.35-1.05,1.86-2.18,1.86-.68,0-1.19-.17-1.67-.46l.63-1.36c.25.15.56.26.8.26.32,0,.5-.1.66-.43l-2.6-6.66h1.99l1.51,4.52,1.45-4.52Z"/>
      </g>
    </g>
    <g>
      <path class="cls-4" d="M327.91,34.27c1.1,0,2.22-.1,3.35-.29,1.13-.19,2.16-.54,3.1-1.04.94-.5,1.7-1.19,2.3-2.05.6-.86.9-1.97.9-3.31,0-1.1-.19-2.04-.58-2.81-.38-.77-.89-1.42-1.51-1.94-.62-.53-1.36-.91-2.2-1.15-.84-.24-1.72-.36-2.63-.36-2.88,0-5.05.72-6.52,2.16-1.46,1.44-2.51,3.6-3.13,6.48h-9.72c.77-5.52,2.87-9.74,6.3-12.67,3.43-2.93,7.84-4.39,13.21-4.39,2.02,0,4.02.23,6.01.68,1.99.46,3.77,1.2,5.33,2.23,1.56,1.03,2.83,2.39,3.82,4.07.98,1.68,1.48,3.74,1.48,6.19,0,3.02-.89,5.57-2.66,7.63-1.78,2.06-4.06,3.38-6.84,3.96v.14c2.59.82,4.42,2.09,5.47,3.82,1.06,1.73,1.58,3.89,1.58,6.48,0,2.98-.55,5.54-1.66,7.7-1.1,2.16-2.6,3.94-4.5,5.33-1.9,1.39-4.09,2.42-6.59,3.1-2.5.67-5.16,1.01-7.99,1.01-6.19,0-10.76-1.52-13.72-4.57-2.95-3.05-4.24-7.6-3.85-13.64h9.65c-.34,3.02.19,5.42,1.58,7.2,1.39,1.78,3.6,2.66,6.62,2.66,2.74,0,5.04-.79,6.91-2.38s2.81-3.84,2.81-6.77c0-2.21-.68-3.8-2.05-4.79-1.37-.98-3.06-1.48-5.08-1.48h-3.67l1.37-7.2h3.1Z"/>
      <path class="cls-4" d="M377.77,22.32c-1.18-1.15-2.7-1.73-4.57-1.73-1.97,0-3.67.48-5.11,1.44-1.44.96-2.66,2.17-3.67,3.64-1.01,1.46-1.86,3.08-2.56,4.86-.7,1.78-1.31,3.48-1.84,5.11l.14.14c1.3-1.87,2.93-3.23,4.9-4.07,1.97-.84,4.03-1.26,6.19-1.26s4.31.36,6.16,1.08c1.85.72,3.42,1.75,4.72,3.1,1.3,1.34,2.29,2.96,2.99,4.86.69,1.9,1.04,4.02,1.04,6.37,0,2.74-.49,5.28-1.48,7.63-.98,2.35-2.35,4.39-4.1,6.12-1.75,1.73-3.82,3.1-6.19,4.1-2.38,1.01-4.93,1.51-7.67,1.51-3.22,0-5.95-.5-8.21-1.51-2.26-1.01-4.1-2.42-5.54-4.25-1.44-1.82-2.48-3.98-3.13-6.48-.65-2.5-.97-5.23-.97-8.21,0-4.42.55-8.56,1.66-12.42,1.1-3.86,2.72-7.24,4.86-10.12,2.14-2.88,4.73-5.16,7.78-6.84,3.05-1.68,6.52-2.52,10.4-2.52,2.21,0,4.26.28,6.16.83,1.9.55,3.55,1.39,4.97,2.52,1.42,1.13,2.54,2.58,3.38,4.36.84,1.78,1.31,3.89,1.4,6.34h-9.86c-.05-1.92-.66-3.46-1.84-4.61ZM360.85,54.46c1.42,1.61,3.28,2.41,5.58,2.41,3.02,0,5.36-.97,7.02-2.92,1.66-1.94,2.48-4.38,2.48-7.31s-.72-5.02-2.16-6.41c-1.44-1.39-3.38-2.09-5.83-2.09-1.44,0-2.72.28-3.85.83-1.13.55-2.09,1.3-2.88,2.23-.79.94-1.4,2.02-1.84,3.24-.43,1.22-.65,2.53-.65,3.92,0,2.45.71,4.48,2.12,6.08Z"/>
      <path class="cls-4" d="M388.39,38.52c.43-2.54,1.07-5.04,1.91-7.49s1.92-4.78,3.24-6.98c1.32-2.21,2.86-4.14,4.61-5.8,1.75-1.66,3.74-2.96,5.98-3.92,2.23-.96,4.69-1.44,7.38-1.44,2.83,0,5.3.47,7.42,1.4,2.11.94,3.86,2.24,5.26,3.92,1.39,1.68,2.44,3.68,3.13,6.01.7,2.33,1.04,4.91,1.04,7.74,0,2.45-.22,4.98-.65,7.6-.43,2.62-1.09,5.15-1.98,7.6-.89,2.45-2.02,4.78-3.38,6.98s-2.96,4.13-4.79,5.76-3.89,2.93-6.19,3.89c-2.3.96-4.87,1.44-7.7,1.44s-5.34-.52-7.38-1.55c-2.04-1.03-3.68-2.44-4.93-4.21-1.25-1.77-2.16-3.83-2.74-6.16-.58-2.33-.86-4.79-.86-7.38,0-2.4.22-4.87.65-7.42ZM398.22,51.44c.22,1.08.59,2.02,1.12,2.81.53.79,1.25,1.43,2.16,1.91.91.48,2.06.72,3.46.72,1.73,0,3.25-.49,4.57-1.48,1.32-.98,2.46-2.27,3.42-3.85.96-1.58,1.77-3.36,2.45-5.33.67-1.97,1.21-3.94,1.62-5.9.41-1.97.7-3.83.86-5.58.17-1.75.25-3.2.25-4.36,0-1.25-.13-2.42-.4-3.53-.26-1.1-.7-2.06-1.3-2.88-.6-.82-1.37-1.46-2.3-1.94-.94-.48-2.05-.72-3.35-.72-1.68,0-3.17.49-4.46,1.48-1.3.98-2.42,2.27-3.38,3.85-.96,1.58-1.76,3.37-2.41,5.36-.65,1.99-1.17,3.97-1.55,5.94-.38,1.97-.66,3.84-.83,5.62-.17,1.78-.25,3.26-.25,4.46s.11,2.34.32,3.42Z"/>
    </g>
    <line class="cls-3" x1="286.43" y1="2.17" x2="286.43" y2="64.98"/>
  </g>
</svg>